<svg xmlns="http://www.w3.org/2000/svg" viewBox="0 0 1200 630" role="img" aria-label="Cairn — Record once. Reuse forever.">
  <title>Cairn cover</title>
  <desc>A dithered cairn mark beside the monospace wordmark cairn and the tagline Record once, Reuse forever, on a warm sand field, with HTTP, OpenAPI and MCP chips.</desc>
  <rect width="1200" height="630" fill="#efe5d1"/>

  <g>
    <rect x="90" y="60" width="10" height="10" fill="#6f9a3f" opacity="0.40"/>
    <rect x="180" y="90" width="8" height="8" fill="#4f7f2a" opacity="0.30"/>
    <rect x="320" y="50" width="10" height="10" fill="#6f9a3f" opacity="0.35"/>
    <rect x="470" y="70" width="8" height="8" fill="#235f63" opacity="0.35"/>
    <rect x="560" y="52" width="10" height="10" fill="#6f9a3f" opacity="0.30"/>
    <rect x="680" y="84" width="8" height="8" fill="#4f7f2a" opacity="0.30"/>
    <rect x="800" y="56" width="10" height="10" fill="#6f9a3f" opacity="0.35"/>
    <rect x="920" y="80" width="8" height="8" fill="#235f63" opacity="0.30"/>
    <rect x="1040" y="58" width="10" height="10" fill="#6f9a3f" opacity="0.40"/>
    <rect x="1120" y="96" width="8" height="8" fill="#4f7f2a" opacity="0.30"/>
    <rect x="1130" y="200" width="10" height="10" fill="#6f9a3f" opacity="0.35"/>
    <rect x="1100" y="300" width="8" height="8" fill="#4f7f2a" opacity="0.30"/>
    <rect x="1140" y="400" width="10" height="10" fill="#235f63" opacity="0.30"/>
    <rect x="1090" y="470" width="8" height="8" fill="#6f9a3f" opacity="0.30"/>
    <rect x="90" y="520" width="10" height="10" fill="#6f9a3f" opacity="0.40"/>
    <rect x="160" y="560" width="8" height="8" fill="#4f7f2a" opacity="0.30"/>
    <rect x="300" y="540" width="10" height="10" fill="#6f9a3f" opacity="0.30"/>
    <rect x="380" y="575" width="8" height="8" fill="#235f63" opacity="0.30"/>
    <rect x="920" y="560" width="10" height="10" fill="#6f9a3f" opacity="0.35"/>
    <rect x="1000" y="530" width="8" height="8" fill="#4f7f2a" opacity="0.30"/>
    <rect x="1080" y="565" width="10" height="10" fill="#6f9a3f" opacity="0.40"/>
    <rect x="1130" y="520" width="8" height="8" fill="#235f63" opacity="0.30"/>
    <rect x="120" y="250" width="10" height="10" fill="#6f9a3f" opacity="0.30"/>
    <rect x="110" y="380" width="8" height="8" fill="#4f7f2a" opacity="0.30"/>
    <rect x="150" y="450" width="10" height="10" fill="#235f63" opacity="0.30"/>
    <rect x="430" y="300" width="8" height="8" fill="#6f9a3f" opacity="0.30"/>
    <rect x="300" y="470" width="10" height="10" fill="#4f7f2a" opacity="0.30"/>
  </g>

  <g>
    <rect x="188" y="380" width="40" height="40" fill="#34571c"/>
    <rect x="234" y="380" width="40" height="40" fill="#4f7f2a"/>
    <rect x="280" y="380" width="40" height="40" fill="#6f9a3f"/>
    <rect x="326" y="380" width="40" height="40" fill="#4f7f2a"/>
    <rect x="372" y="380" width="40" height="40" fill="#34571c"/>
    <rect x="211" y="334" width="40" height="40" fill="#4f7f2a"/>
    <rect x="257" y="334" width="40" height="40" fill="#6f9a3f"/>
    <rect x="303" y="334" width="40" height="40" fill="#4f7f2a"/>
    <rect x="349" y="334" width="40" height="40" fill="#235f63"/>
    <rect x="234" y="288" width="40" height="40" fill="#4f7f2a"/>
    <rect x="280" y="288" width="40" height="40" fill="#235f63"/>
    <rect x="326" y="288" width="40" height="40" fill="#6f9a3f"/>
    <rect x="257" y="242" width="40" height="40" fill="#6f9a3f"/>
    <rect x="303" y="242" width="40" height="40" fill="#4f7f2a"/>
    <rect x="280" y="196" width="40" height="40" fill="#235f63"/>
  </g>

  <rect x="452" y="150" width="2" height="300" fill="#4f7f2a" opacity="0.25"/>

  <text x="480" y="206" font-family="Menlo, Monaco, ui-monospace, monospace" font-size="84" font-weight="500" fill="#4f7f2a">&gt;</text>
  <text x="544" y="206" font-family="Menlo, Monaco, ui-monospace, monospace" font-size="84" font-weight="500" fill="#1c2417">cairn</text>
  <rect x="804" y="146" width="26" height="66" fill="#235f63"/>

  <text x="480" y="314" font-family="Menlo, Monaco, ui-monospace, monospace" font-size="56" font-weight="500" fill="#1c2417">Record once.</text>
  <text x="480" y="380" font-family="Menlo, Monaco, ui-monospace, monospace" font-size="56" font-weight="500" fill="#1c2417">Reuse forever.</text>

  <text x="482" y="428" font-family="Menlo, Monaco, ui-monospace, monospace" font-size="24" fill="#5e6452">A browser workflow &#8594; a durable, private API.</text>

  <g font-family="Menlo, Monaco, ui-monospace, monospace" font-size="20" font-weight="500">
    <rect x="480" y="462" width="104" height="42" rx="21" fill="#e7dcc4" stroke="#235f63" stroke-width="1.5"/>
    <text x="532" y="490" fill="#235f63" text-anchor="middle">HTTP</text>
    <rect x="600" y="462" width="150" height="42" rx="21" fill="#e7dcc4" stroke="#235f63" stroke-width="1.5"/>
    <text x="675" y="490" fill="#235f63" text-anchor="middle">OpenAPI</text>
    <rect x="766" y="462" width="96" height="42" rx="21" fill="#e7dcc4" stroke="#235f63" stroke-width="1.5"/>
    <text x="814" y="490" fill="#235f63" text-anchor="middle">MCP</text>
  </g>
</svg>
